<svg id="圖層_2" height="512" viewBox="0 0 500 500" width="512" xmlns="http://www.w3.org/2000/svg" data-name="圖層 2"><path d="m172.85 216.36c-2.31-1.26-3.67-3.21-3.07-5.64a7.35 7.35 0 0 1 3.22-4c.58-.38 4.12-1.36 2.87-1.17.25 0 .62 1.21.15.14-.68-1-.66-.95.07.32l-.43-.78c0 .24-.22-2 .18-1.72 1.7 1.08-.68 1-.67 1-1.6 1.77-.85-1.22-.19.57l1.44 1.05q5 7.48-3 7.88c-3.68-1.74-1-8.92 2.78-6.86l4.73 3.43-.72-.77 3.51 11.41-1.6 1.67q-2.66 4.44-5.24-2.23l-3.64-3.89.26-.69c.83.36-2 1.21-.15.24 0 0-1.29.88-.49.46a5.38 5.38 0 0 1 -.64.28c-.44.14-3.25.69-2 .33-1.46.43-.27-.45.69.78.4.51.66 1.69 1 2a4.6 4.6 0 0 1 0-1.14 7.18 7.18 0 0 1 1.06-2.7 35.64 35.64 0 0 1 3.88-2.72c0-.13-1.39-.93-2-1.47-1.06-.94.23-1.25-.46-.85a21.16 21.16 0 0 1 -2.18 3.93 14.45 14.45 0 0 1 -4.73 3.1 9.92 9.92 0 0 1 -5.58.57 4.73 4.73 0 0 1 -2.79-1.65 4.53 4.53 0 0 1 -1.32-2.77 18.52 18.52 0 0 1 -.17-5c1.49-8 12.68-14.15 21.65-10.48a12 12 0 0 1 4 2.81 10.3 10.3 0 0 1 2.81 5 14 14 0 0 1 -2.56 12.76c-3.53 4.26-10 5.62-15.2 4.34a17.22 17.22 0 0 1 -5.23-2.25 11 11 0 0 1 -4.29-4.65c.43.95-.59-1.67-.69-2.14.14.61-.22-2.42-.2-3a16.87 16.87 0 0 1 1.44-5.73 15.13 15.13 0 0 1 10.75-8.84c4.5-.94 9.56-.3 12.71 2.54 2.54 2.29 2.53 5.25.69 8.71-5 9.41-16.79 12.09-25.86 8.26a19.3 19.3 0 0 1 -8.72-7.23 8 8 0 0 1 -1.31-4.33 17.27 17.27 0 0 1 1.72-8c5.48-11.84 19.75-17.1 32.12-16.82 5.66.12 12 1.46 15 5.74-.67-.94.83 1.65 1 2.05-.42-1 .48 1.83.57 2.25a20.89 20.89 0 0 1 -.13 6.65c-2.24 11.18-14 18.13-24.49 19.77a27.52 27.52 0 0 1 -15.27-1.78c-4-1.77-6-3.62-6.78-8.15-1.95-11.25 7-22.48 16.32-27.4s21.73-3.78 28.72 3.88a14.65 14.65 0 0 1 4.29 11.22 26 26 0 0 1 -5.23 13.72 34.05 34.05 0 0 1 -30.7 13.83 27.79 27.79 0 0 1 -15.37-6 19.57 19.57 0 0 1 -6.34-11c-2.11-10.54 5.08-19.32 14.65-24 10.59-5.2 25.67-7.66 37.09-4.11 10.16 3.17 14.52 11.41 13 21.32-1.61 10.71-10.73 19.41-20.75 22.75-12.38 4.12-26.37.46-36.24-7.7-8.77-7.26-14-18.29-11.87-29.8 2.27-12.2 11.88-20 23.57-22.81s25.82-3.32 37.21 1c10.87 4.13 14.81 12.94 12.75 24.68-4 23.06-29.08 39.86-51.77 32.22a38 38 0 0 1 -13.43-7.75 26.34 26.34 0 0 1 -7.72-12.86 33.6 33.6 0 0 1 7-30.69c8.42-9.44 21.9-14.2 34.42-13.29a40 40 0 0 1 17.24 4.84 25.76 25.76 0 0 1 9.81 10 28.35 28.35 0 0 1 3 14.61 36.93 36.93 0 0 1 -4.62 15.91c-5.66 10.39-17.05 16.87-28.4 19-10.36 1.95-24.61.91-31.91-6.54a24 24 0 0 1 -6.54-13 31.08 31.08 0 0 1 1.14-16c4.09-11 16.21-12.78 26.56-11.17a45 45 0 0 1 15.51 5.33 22 22 0 0 1 6 4.94 6.5 6.5 0 0 1 1.32 4.08 7.44 7.44 0 0 1 -1.06 3.84 7.78 7.78 0 0 1 -1.33 1.42c.29-.24.6-.49-.2-.09a5.13 5.13 0 0 1 -2.19.5c1-.05-1.37-.23-1.73-.3.89.18-.58-1.06.26 0s1.87 2.17 1.78 3.83c-.25 4.79-9.24 5.51-9.58-5.27l.92-5.43-.33 1.06 17.66 2.06c.17.4.8.3.84.53v.1q-4.91-.45-5.91-6.75l-.1-.49q-.26-.9-.69 1c-3.71 3-7 5.63-11.66 7.3-9.94 3.51-22.11 3.13-31.14-2.65-7.86-5-12-13-12.56-22-.53-8.81 3.68-17.27 10.64-23.06a37.48 37.48 0 0 1 51.09 3.28 45.61 45.61 0 0 1 12 26.17c1 10-1 21-7.54 28.91-7.23 8.66-18.23 12.08-29.23 11.88-11.58-.17-25.71-3.24-34.52-11.21a27.73 27.73 0 0 1 -5.83-8.17 31.21 31.21 0 0 1 -2.52-14.88c.67-9.73 6-18.7 13.63-24.75 17.72-14 43.54-11.48 59 4.59 15.24 15.75 18.5 41.72 2.24 58.42-8.27 8.48-19.11 11.54-30.71 10.09s-24.05-5.38-32.69-13.4c-15.07-14-14.27-39-.7-55.19 15.69-18.72 41.85-24.1 64.42-15.57 10.06 3.8 20.34 10.19 25.8 19.63a30 30 0 0 1 4 12.58 42.72 42.72 0 0 1 -1.3 15.28c-5.75 21.88-26.42 34.36-47.95 36.26a63.78 63.78 0 0 1 -34.24-6.65 39.5 39.5 0 0 1 -12.19-9.62 42 42 0 0 1 -6.88-11.41c-7.08-18.28-4.49-46.09 13.56-58s45.53-9.69 63.06 2.39c8.49 5.85 14.34 13.47 16 24.44a50.8 50.8 0 0 1 -6.69 33c-11.15 19.09-39 30.27-58.13 15.52a27.23 27.23 0 0 1 -10.72-22.06c.2-9.63 6.61-18.26 15-22.82 10.26-5.61 21-3.05 30.45 3 8.49 5.48 15.64 13.17 16.44 21.81.75 8.19-3.19 16.7-11.17 20.56-11.36 5.48.17 26.53 11.63 21 14.16-6.84 21-23.19 19.95-38.33-1.14-17.11-12.12-32.26-25.76-42-14.4-10.27-31.72-15.81-48.75-9.13a45.4 45.4 0 0 0 -27.6 34.85c-2.4 16.27 3.68 33.6 15 45.43 12.17 12.73 29.17 18.58 46.63 16.79 35.32-3.64 57.87-39.72 54.32-73.39-3.71-35.24-34.43-59-68.58-61.47-15.76-1.15-33 1.66-45.73 11.57-13.31 10.35-20.6 26.73-22.41 43.29-3.71 33.81 13.62 67.56 46.52 79.28 29.59 10.54 67.92 4.76 87.24-22.06a67.17 67.17 0 0 0 12.78-43.54c-1.23-18-10.53-33.64-24.36-44.9-26-21.13-66.69-25.3-94.08-4.54-12.91 9.79-22.31 23.1-25.84 39.06a66.25 66.25 0 0 0 8.23 48.16c9.52 15.23 24.72 25.17 41.85 30 16.81 4.7 35 5.74 50.08-4.48 31.16-21.1 30.57-63.65 9.84-91.91-19.38-26.41-57.57-37.95-86.21-19.48-13.3 8.57-22.9 22.28-24.88 38.15-2 16.3 2.74 33.63 13.89 45.88 11.78 12.94 30.26 19.49 47.42 20.69 16.31 1.14 33.33-2.8 44.82-15.11 23-24.66 15.62-66.68-6-89.57-10.58-11.19-25.22-19.49-40.91-19.78a55.85 55.85 0 0 0 -39.9 15.12c-23.76 22.65-15 64.43 11.67 80.9a55.93 55.93 0 0 0 49.12 4.58c7.49-2.8 14.55-7.18 18.83-14.1a20.9 20.9 0 0 0 -2.17-25.33c-6.47-7.11-17.82-8-24.75-1.06-7.26 7.27-5.43 18.26-1.85 26.69 2.57 6.08 15 10.72 17.66 2.06 2.3-7.44.77-14.64-5.3-19.91-5.41-4.7-13-6.1-18.77-1.2-10.52 8.94-5.36 26 5 32.69 8.73 5.64 20.92 5.48 28.23-2.48 8.21-8.95 7.58-23 2.59-33.28-9.63-19.87-37.77-29.83-58.67-26-25.69 4.71-33.37 32-27.53 54.68 6.12 23.74 27.18 38.44 51.3 38.57 22.15.11 44.11-10.77 54-31.24s6.28-47.63-10.44-63.64c-17.41-16.66-43.2-20.31-65.23-11.34-21.68 8.83-34.09 30.93-32.13 54 2 23.46 18.4 44 41.05 50.8 21.76 6.49 44.88.11 59.75-17.31s20.23-45.06 7-65.16c-13.38-20.33-39.18-24.26-61.71-21.67-11.68 1.33-22.91 5.35-31.76 13.24-8.56 7.63-13.41 19.42-14.18 30.73-1.73 25.55 14.73 49.22 37.55 59.73 20.85 9.61 47.1 6.18 62.18-12 14.88-18 13.61-46-3.2-62.42-17.37-17-45.69-15.89-66.72-6.64-21.38 9.42-31.11 32.7-22.56 54.55a49.87 49.87 0 0 0 58.35 30c21.47-5.38 38.34-25.39 37.2-48-1.21-24.16-23.76-43.45-47.57-42.27-23 1.14-41.53 22.12-42.54 44.57-1.18 26.5 21.94 44.31 47.19 41.7 22.61-2.34 41.55-21.06 40.54-44.32-.53-12-6.57-23.92-16.45-30.82-10.43-7.27-24-8.45-36.25-6.21-24.19 4.44-45.34 27.07-37.08 52.82 6.44 20.1 29.82 35.15 50.83 28.94 10.5-3.09 20-10.91 23.65-21.42 4.72-13.43-.3-27.64-10.88-36.75-17.72-15.26-45.87-7.89-53 14.44-7.46 23.3 9.69 49.58 34.64 50.74 12.38.57 24.08-5.42 29.61-16.74 5.29-10.82 4-23.94-1.31-34.46-10.68-21.09-40.2-29-57.34-10.55-14.94 16.13-8.1 46.37 12.33 54.55 22.14 8.86 44.75-14.26 34.73-36-6-13.06-21.62-17.77-32.7-7.68-8.76 8-10.32 21.9-4.62 32.08 5.61 10 17.46 14.54 28.07 10 11.74-5.05 13.59-20.31 6-29.8-4-4.95-9.89-8.17-16.27-6.44-8.35 2.27-11.43 12.25-7.39 19.53 3.23 5.83 9.95 9.42 16.53 7.88 7.37-1.73 10.67-9.3 10.08-16.31-1-12.07-17.1-30.16-29.34-18.6-11.5 10.87-.87 31.26 13.34 33s22.3-12.31 19.34-24.74c-2.71-11.46-13.36-21.44-25.65-20-11.15 1.29-19.42 11.58-20.14 22.41-.95 14.15 7.83 25.9 19.79 32.41 5.14 2.8 11-1.38 11.87-6.58 1.14-6.42-2.89-11.94-8.22-14.84z" fill="#fede82"/><path d="m162.62 233.08c-11 3.75-22.09 1.2-31-6.08-9.1-7.41-13.51-19.41-15.93-30.65-2.66-12.37-4-27 .14-39.2a51.66 51.66 0 0 1 18.37-24.75c18.24-13.3 41.31-16.21 61.75-6.27 19.75 9.61 34 29.64 36.94 51 1 6.89.77 13.69-2.2 20.08-2.74 5.91-7.08 10.84-11.82 15.26a73.58 73.58 0 0 1 -32.09 17.27c-23.35 5.78-48.28-.5-64.29-18.47-7-7.83-11.87-17.31-13.14-28a58.35 58.35 0 0 1 5.73-33c5.71-11.5 15.22-19.63 26.44-25.54 12.54-6.62 27.23-11.89 41.61-11.1a54.67 54.67 0 0 1 30.14 11.37 59.12 59.12 0 0 1 11.4 11.49 62.11 62.11 0 0 1 7 12.39c8.29 21.62 1.9 46.65-12.74 64.29a71.44 71.44 0 0 1 -12.46 12c-4.91 3.62-5.48 9.92-2.58 15.15 2.3 4.14 9.28 9.47 14.22 5.84 24.94-18.38 40.24-48.87 37.4-80.13-2.81-31-24.15-59.69-53.43-70.63-15.9-5.94-33-5.82-49.19-.93-16.52 5-33.28 13-45.11 25.9-21.6 23.58-24.7 59.85-10.53 87.91 14 27.66 44.19 46.8 75.27 46.66a90.83 90.83 0 0 0 46.35-12.74c13.65-8.2 26.93-20.6 32.11-36 5.84-17.42 1.87-36.42-5.23-52.85a100.61 100.61 0 0 0 -27.68-36.72c-23.16-19.51-54.68-24.93-82.5-12.65a73.16 73.16 0 0 0 -31.27 26.17c-9.61 14.53-12.21 31.31-11 48.5 2.33 33.38 17.37 70.22 53.33 78.28a42.41 42.41 0 0 0 22.73-1.07c5.69-1.94 8-7.27 6.26-13-1.36-4.61-7.29-11.62-13-9.66z" fill="#fede82"/><path d="m61.41 69.61c-11 14.71-15.54 32.52-16.8 50.63a246.19 246.19 0 0 0 3.8 62.2c6.56 35.38 19.12 76.77 50.85 97.69 16.11 10.62 36.86 16.13 55.61 9.6 10.83-3.78 7.24-17.93-1.56-22.07a168.86 168.86 0 0 1 -65.31-54.36c-8.35-11.7-15.19-25-17.63-39.25-2.72-15.94-.62-32.28 3-47.88 4.39-18.68 12.28-36.31 12.2-55.8 0-6.63-6.73-13.7-13.57-12.64-15.55 2.42-25.9 16.09-30.82 30.13-5.95 16.93-6.62 34.85-5.79 52.62 1.64 35.43 6.33 71.12 21.2 103.64l16.79-9.31a167.08 167.08 0 0 1 -14.79-87.18l-20.1-8.27c-4.11 51.52 13 103.85 47.92 142.2 18.08 19.86 40.28 35.5 58 55.71 7.49 8.54 14.33 18 18.58 28.6 4.8 12 5.9 27.47 21.91 29.43 15.37 1.89 32-1.78 47.15-3.87 15.64-2.16 31.12-3.66 46.7-.23 3.5.77 7-1.65 8.47-4.7 1.82-3.85.73-7.71-.86-11.37-4.45-10.22-4.26-22.3-3.19-33.16 1.27-12.78 3.69-25.44 5.67-38.11q6.48-41.7 11.78-83.55c1.75-13.88 4.08-28.1 2.64-42.11-1.33-12.89-5-25.53-8.81-37.87-7.43-24.16-17-47.91-29.7-69.81-7-12-14.75-24.4-24.28-34.6-9.91-10.6-23.11-19.43-38.26-16.87-4.43.75-7.45 5.73-6.81 10.08 2.41 16.26 10.83 30.09 22.19 41.74 10.72 11 23.79 20.08 32.72 32.75 9.07 12.88 13.86 28.65 17.62 43.77 3.9 15.72 5.84 32.25 2.69 48.27-2.88 14.66-10.43 29.16-22.74 38l13.66 19.38a169.29 169.29 0 0 0 25.76-54.82l-20.24-5.41c.89 11.94-8.78 21.35-18.32 27-11.6 6.81-24.86 11.16-37.57 15.4a378.87 378.87 0 0 1 -42.17 11.53 197.25 197.25 0 0 1 -20.78 3.53c-3.09.31-9.72.43-11.24-1-3.93-3.6-10-6.39-14.39-1.61s-2.06 11.7 1.29 16.16a484.39 484.39 0 0 1 64.82 116.65c2 5.23 6.72 10.81 13 9.66 6-1.1 7.76-7.9 6.26-13.05a542.31 542.31 0 0 1 -18.96-98.08l-19.83.42c9.56 30.31 19.43 61 36.06 88.27 2.62 4.3 7.72 8.28 13 6.27 5-1.88 6.66-7.76 5-12.62a334.82 334.82 0 0 1 -16.9-93.61l-19.83.41 31.56 89c1.87 5.28 6.82 10.79 13 9.66 5.81-1.06 8-8 6.26-13.05a291.83 291.83 0 0 1 -15.76-76.62l-19.83.42q10.27 36.16 23.27 71.38c1.95 5.26 6.77 10.8 13 9.66s7.46-7.85 6.27-13a512.78 512.78 0 0 1 -11.46-76.07l-19.83.42q11.31 41.14 25.81 81.3c1.9 5.27 6.8 10.8 13 9.66 6.37-1.16 7.33-7.83 6.27-13.05a458.52 458.52 0 0 1 -8.84-79.48l-19.83.41q8 35.77 19.48 70.62c1.64 5 6.08 10 11.73 9.69a8.75 8.75 0 0 0 8.1-10.11 287.28 287.28 0 0 1 -3.83-72.37l-20.24-5.41 10.58 60.37c1 5.78 4.52 11.92 11 12.69 6 .71 9.7-4.61 9.4-10.14a276.25 276.25 0 0 1 4-64.26l-20.1-8.26-1.68 16.05c-.63 6 2.41 12.49 8.23 14.84s10.46-1 11.87-6.58a60.37 60.37 0 0 0 1.4-21.51c-.88-7.87-7.86-15-16-11.77l-31.5 12.51c-4.36 1.73-8.72 3.81-13.24 5.11a39.85 39.85 0 0 1 -5.75.95c-.11 0-1.37-.4-1.33-.51.23-.57 2.19 4.16 2.14 3.71l-2.35 7.6c5.84-5.56 18.36 2.87 24.91 3.73a12.41 12.41 0 0 0 13.33-7.44 27.93 27.93 0 0 0 1.72-6.31c0-.17.67-2.89.6-3 .45.45-1.14 1.8-1.35 1.94l-16-11.77a223.8 223.8 0 0 1 -3.21 92.78c-1.65 6.68 4.25 14.61 10.84 15.54a42.37 42.37 0 0 1 14.91 4.69l.94-20.68a343 343 0 0 1 -35.31 9.9c-11.75 2.62-6.62 22.95 4.16 22.77l24.84-.42c5.88-.1 9.79-4.05 9.4-10.13a14 14 0 0 0 -11-12.69c-30.44-7.53-72.39-22.07-77.81-57.39l-16.74 6c5.76 7.39 8.4 16.26 8.7 25.53l12-9.43a146.08 146.08 0 0 1 -35.23-27.56l-10.86 16.59a239.61 239.61 0 0 1 35.54 28.68l10.86-16.6a62.92 62.92 0 0 1 -27.78-40.73l-11.47 12.41a79.73 79.73 0 0 1 35.71 26.18c2.71 3.48 8.31 5.47 12.36 3.22 4.24-2.35 5-7.91 3.83-12.19-3-10.51-7.59-20.46-12.2-30.34l-16.79 9.31a34.59 34.59 0 0 1 5.24 11.68l16.19-9-9.56-12.45a43.29 43.29 0 0 0 -5.07-6.12 11 11 0 0 0 -4.92-2.77c-3.27-.73.57.44 1 1l3.1 5.58-.08.67-18.59 3.37c4.2 7.19 8.46 18.61 16.64 22 11.26 4.6 17.34-8.58 12.09-17.4-2.77-4.64-8.79-8.85-14.22-5.84-5.24 2.9-5.33 10.53-2.58 15.15l.39.65-1.65-8.78-.22.79 2.21-4.76-.64.63 4.46-2.47-.86.19 5.21.64-1.07-.46 4.72 3.44c1.15 1.19-.32-.43-.67-1-.85-1.42-1.67-2.87-2.5-4.3l-4.51-7.72c-2.32-4-6.88-7.6-11.78-6.71-4.47.82-7.41 5.68-6.81 10.08 1.16 8.46 7.21 17.53 16.63 17.75l-7.33-4.14 13.49 17.58c2.68 3.49 8.34 5.45 12.37 3.22 4.33-2.41 4.89-7.85 3.82-12.2a55.06 55.06 0 0 0 -7.7-17.61c-3-4.48-8.59-9-14.21-5.84s-4.86 10.28-2.58 15.15c3.73 8 7.28 15.92 9.7 24.42l16.2-9a103 103 0 0 0 -45.17-33.01c-8.73-3.23-13.07 4.87-11.47 12.41a90.34 90.34 0 0 0 38.41 56c4.2 2.75 9.86 3.16 12.87-1.51 2.87-4.47 1.77-11.36-2-15.08a270.78 270.78 0 0 0 -40-32.75c-4.18-2.78-9.88-3.14-12.87 1.52s-1.66 11.2 2 15.07a181.62 181.62 0 0 0 44.78 34.34c6.78 3.74 12.2-3.4 12-9.43-.5-15.72-6.35-30.32-16-42.64-5.54-7.1-18.28-4-16.74 6 3.48 22.63 16.41 41.86 34.51 55.63 19.06 14.49 42.34 21.47 65.25 27.13l-1.57-22.82-24.84.41 4.17 22.77a340.3 340.3 0 0 0 35.3-9.89c8.72-3 9-16.16.94-20.67a70.05 70.05 0 0 0 -25.11-8.88l10.83 15.54a239.42 239.42 0 0 0 3.48-98.49c-1.1-6.32-8.14-16.86-16-11.77-5.12 3.32-6.88 8.45-7.81 14.25-.35 2.16-.73.7.25.28a3.26 3.26 0 0 1 1.07-.95c3.1 0 3.85-.26 2.25-.71-2-1.41-6-2.09-8.3-2.77-6.28-1.84-13-3.43-19.58-2-7.51 1.61-14.24 6.85-13.34 15.16s6.86 15.64 14.4 18.95c6.78 3 14 2.1 20.77-.24 15.67-5.41 31-12.16 46.37-18.28l-15.96-11.78a42.73 42.73 0 0 1 -1.13 15.8l20.1 8.26 1.68-16.05c.63-6-2.4-12.5-8.22-14.85a8.5 8.5 0 0 0 -11.88 6.59 302.1 302.1 0 0 0 -4.28 70l20.38 2.55-10.58-60.36c-1-5.43-3.85-10.95-9.67-12.34-4.71-1.13-10.15 1.52-10.57 6.93a308.54 308.54 0 0 0 3.56 78.08l19.83-.42q-11.46-34.83-19.49-70.62c-2.59-11.57-20.19-13.49-19.82.42a491.74 491.74 0 0 0 9.92 85.43l19.29-3.39q-14.51-40.14-25.81-81.3c-1.37-5-6.27-10-11.73-9.69s-8.49 4.9-8.1 10.11a552.76 552.76 0 0 0 12.54 82l19.29-3.39q-13-35.22-23.25-71.37c-1.41-5-6.24-10-11.72-9.69s-8.46 4.9-8.11 10.11a315.6 315.6 0 0 0 16.86 82.57l19.28-3.39-31.55-89c-1.75-4.94-6-10-11.73-9.69-5.46.28-8.29 4.9-8.1 10.11a357.22 357.22 0 0 0 18 99.57l18-6.36c-15.57-25.55-24.63-54-33.57-82.36-1.57-5-6.13-10-11.73-9.69-5.23.26-8.62 4.91-8.1 10.11a576.47 576.47 0 0 0 20.09 104l19.32-3.35a528.09 528.09 0 0 0 -71-127.81l-13.1 14.55c13 11.88 28.44 10 44.56 7a367.87 367.87 0 0 0 51.32-13.57c29.09-9.83 70.58-23.66 67.74-61.92-.8-10.83-16.59-19-20.24-5.41a142 142 0 0 1 -21.34 45.31c-3.26 4.59-2.93 10.3.37 14.85 2.62 3.61 8.76 7.8 13.29 4.53 28.46-20.51 36.47-56.77 31.75-90a208.46 208.46 0 0 0 -15.06-53.46c-7.35-16.93-18.67-30.15-32.21-42.45-11-10-25.93-21.61-28.21-37.06l-6.81 10.08c9.67-1.64 17.11 6.71 22.59 13.59a203 203 0 0 1 18.11 27.47c11.53 20.54 20.06 42.49 26.74 65 3.4 11.49 6.75 23.06 6.89 35.12.15 12.59-2.29 25.36-3.91 37.82q-5.16 39.88-11.41 79.63c-4.45 28.28-10.3 56.71 1.58 84l7.61-16.06c-26.53-5.85-53.12 1.65-79.6 3.8-2.82.23-5.66.42-8.5.46-1.51 0-3.6-.43-5.06-.09l-1.37-.15a6.11 6.11 0 0 1 3.11 2.13c.69.2.63 2.6.15-.33-.18-1.08-.58-2.19-.87-3.26a83.66 83.66 0 0 0 -3.06-9.22 130.29 130.29 0 0 0 -19.22-32.68c-15.59-19.75-35.9-34.86-53.83-52.31-16.19-15.77-29.48-33.88-38.23-54.81a160.69 160.69 0 0 1 -12.11-74.26c.48-6-2.31-12.46-8.22-14.85-5.07-2-11.29.74-11.88 6.58a198.62 198.62 0 0 0 18.1 104.76c2.33 4.89 9.1 8.68 14.21 5.89 5.63-3.12 4.81-10.26 2.58-15.15-12.33-27-15.6-57.18-17.33-86.46-.86-14.39-1.13-28.89 2.42-42.96 2.61-10.31 8.59-23.16 20.29-25l-13.57-12.62c.07 17.07-8.06 33.7-11.92 50.1-4.1 17.39-6.06 35.83-3.32 53.58 5.38 34.79 27.71 64.61 53.49 87.49a193.86 193.86 0 0 0 46.14 30.1l-1.55-22.08c-12.65 4.41-26 2.73-37.6-3.87-12.41-7.05-20.83-18.84-27-31.43-6.93-14.15-11.1-29.86-14.35-45.22a223.9 223.9 0 0 1 -4.74-51.64c.39-16.24 2.65-34.11 12.68-47.47 3.68-4.9 2.68-11.67-1.29-16.16-3.26-3.67-10.7-6.53-14.4-1.61z" fill="#fede82"/><path d="m268.7 233a50.31 50.31 0 0 1 -4.47 17.34c-2.55 5.51.2 12.62 4.94 16 4.48 3.21 11.05 2.87 13.58-2.61a67 67 0 0 0 6.05-22.5c.5-6-2.33-12.46-8.23-14.84-5-2-11.38.71-11.87 6.58z" fill="#fede82"/><path d="m64.92 248.91c10.49 27.49 28.34 50.57 45.81 73.9 15.88 21.22 31 42.94 36.14 69.43.8 4.13 5.85 9.71 10.43 9.72h18.86c8.27 0 12.29-9.21 7.61-16.07q-18-26.29-34.62-53.45l-16.79 9.31a436.88 436.88 0 0 1 26.86 49.77l16.78-9.3a214.92 214.92 0 0 1 -15.84-38.84l-18 6.36a272.68 272.68 0 0 1 14 41.35c1.15 4.44 5.6 9.34 10.43 9.72a714.57 714.57 0 0 0 127.09-1.39c9.6-1 7-13.68 3.17-18.63a14.2 14.2 0 0 1 -2.6-9.43l-18.45.53a66.49 66.49 0 0 1 5 16.27l19.29-3.4a273.89 273.89 0 0 1 -5.24-68.5c1.18-23.58 6.41-46.38 11-69.44 4.52-22.58 7.57-45.75 3.56-68.65s-13.31-44.17-23.16-65.17c-10.62-22.59-22.15-45-38.85-63.76-3.57-4-10.3-6.09-14.39-1.61s-2.4 12 1.29 16.17c13.7 15.43 23.3 33.69 32.16 52.2 9.19 19.2 18.56 38.87 22.62 59.92 4.14 21.52.6 43.31-3.71 64.5-4.56 22.45-9.4 44.64-10.65 67.59a311.74 311.74 0 0 0 6 80.16c1.12 5.44 7.36 10.69 13 9.66 6.42-1.17 7.25-7.82 6.26-13.06a91.64 91.64 0 0 0 -7.49-22.18c-3.47-7.37-17.57-10.13-18.44.52a45.1 45.1 0 0 0 9.6 32.24l3.18-18.63a685.66 685.66 0 0 1 -121.83 1.28l10.43 9.72a312.48 312.48 0 0 0 -16.51-47.27c-2-4.57-8.19-8.1-13-6.27-5.07 1.92-6.52 7.71-5.05 12.62a249.3 249.3 0 0 0 18.34 44.75c2.52 4.78 8.95 8.76 14.21 5.84 5.63-3.12 4.82-10.26 2.58-15.15a435.32 435.32 0 0 0 -26.86-49.77c-2.86-4.57-8.7-8.89-14.21-5.84-5.19 2.88-5.39 10.57-2.58 15.15q16.65 27.13 34.65 53.43l7.61-16.07h-18.88l10.43 9.72c-5.5-28.49-21.84-52.93-38.8-75.85-16-21.59-33.76-42.88-43.15-67.48-2-5.24-6.74-10.81-13-9.66-5.69 1-8.19 8-6.27 13z" fill="#fede82"/><path d="m339 435-5.2-75.31-3.4 5a701.46 701.46 0 0 1 127.07-2.38l-5.21-4.85 10.05 49.66c1.16 5.73 10.46 6.77 9.91-.21a302.62 302.62 0 0 0 -6.89-44.61c-1.33-5.75-10.14-6.77-9.92.21a105 105 0 0 0 3.1 22c1.37 5.54 10.88 6.83 9.91-.21l-3.3-24.13c-.4-2.89-2.33-6-5.49-6.35a4.41 4.41 0 0 0 -4.7 5.07q4.44 37.39 9.94 74.66c.43 2.89 2.31 6 5.49 6.35a4.4 4.4 0 0 0 4.7-5.07l-2.06-14.42c-.42-2.89-2.31-6-5.48-6.34a4.39 4.39 0 0 0 -4.7 5.06l2 14.24c.4 2.89 2.32 6 5.48 6.34 3 .35 4.88-2.29 4.7-5.06a231.9 231.9 0 0 0 -4.45-32.56l-9.64 1.7a107.4 107.4 0 0 1 2.09 31.43l4.63-3.65c-22-2.29-44.38-1.86-66.52-2.21l-68.62-1.09 5.42 7.77a311.12 311.12 0 0 0 0-71.27c-.34-2.89-2.37-6-5.49-6.34a4.4 4.4 0 0 0 -4.7 5.07 297.56 297.56 0 0 1 .1 68.41c-.35 3 1.76 7.72 5.42 7.78l68.61 1.08c22.14.35 44.48-.08 66.53 2.22a4.22 4.22 0 0 0 4.63-3.64 126.39 126.39 0 0 0 -2.56-37.26c-1.52-6.93-11.22-5.9-9.64 1.7a213.49 213.49 0 0 1 3.91 29.58l10.28 1.28-2-14.24-10.18-1.28 2.12 14.42 10.19 1.28q-5.5-37.26-9.94-74.66l-10.19-1.28q1.6 12.11 3.26 24.11l9.91-.21a90 90 0 0 1 -2.55-19l-9.92.21a279.79 279.79 0 0 1 6.36 41.63l9.91-.21-10.05-49.62c-.45-2.21-2.88-4.69-5.21-4.86a717.4 717.4 0 0 0 -129.71 2.43c-2.37.26-3.55 2.94-3.41 5l5.21 75.31c.45 6.52 10.72 9.09 10.18 1.28z" fill="#97e1d3"/><path d="m339.67 376.73c19.07.54 37.3-6 56.2-7.53a246 246 0 0 1 28.74-.46c4.81.17 9.62.42 14.42.71 3.5.21 9.82-.49 12.73 1.09l-3.54-2.54c-2.36-2.71-.14.85.24 2.18q.75 2.69 1.44 5.39c.9 3.6 1.73 7.22 2.42 10.87a186.33 186.33 0 0 1 2.62 19.84c.28 3.4-.29 7.85.59 11.12.42 1.54-.89.86.46.39-1.41.49-3.64.39-5.09.53q-11.2 1.06-22.45 1.72a617.78 617.78 0 0 1 -90.95-1.53l8.23 9.52.07-50.8-15.28-1.92a358.81 358.81 0 0 0 11.92 51.46c1.18 3.78 4.59 7.41 8.79 7.26s6.29-3.72 6.08-7.58l-2.92-54.26-14.87.32a441.43 441.43 0 0 1 14.18 52.15c1.79 8.62 15.5 10.15 14.87-.32l-3.22-53.54-14.87.32 16.31 51.15c1.2 3.78 4.57 7.41 8.79 7.27 4-.14 6.34-3.73 6.08-7.58l-3.38-50.76-14.88.32 12.28 48.09c2.16 8.47 15.32 10.27 14.87-.31l-2-47.62-14.87.31q8.19 22.94 14.31 46.52c2.19 8.46 15.27 10.28 14.87-.31l-1.76-45.92-14.87.31 11.49 47.41c2.5 10.33 17 8.85 14.46-2.55a235.93 235.93 0 0 1 -5.56-49.27l-13.94 2.53a287.86 287.86 0 0 1 16.54 50.87c1.94 8.51 15.59 10.22 14.87-.31l-3.36-49.05-14.87.32 12.14 44.04c2.81 10.22 17.15 8.86 14.47-2.54a199.06 199.06 0 0 1 -5.15-44.17l-14.88.31q9.72 26.32 17 53.44c2.25 8.34 15.44 10.34 14.88-.32l-2.52-47.21-13.94 2.53a150.9 150.9 0 0 1 9.7 32.9c.75 4.31 3.39 9 8.23 9.52 4.52.49 7.28-3.43 7.05-7.6l-2-37.49-14.87.31 9.56 42.82c1.89 8.44 16.29 10.17 14.87-.31l-6-44.65-15.4-1.92 6.32 43.29c.62 4.31 3.47 9 8.22 9.51a6.59 6.59 0 0 0 7.05-7.6l-6.31-43.28c-.63-4.32-3.47-9-8.23-9.52a6.6 6.6 0 0 0 -7.05 7.6l6.05 44.65 14.87-.32-9.57-42.81c-1.91-8.58-15.43-10.18-14.87.31l2 37.49 15.28 1.92a188.5 188.5 0 0 0 -12.39-41.8c-3.2-7.53-14.4-6.16-13.93 2.53l2.56 47.21 14.87-.31q-7.28-27.1-17-53.44c-1.38-3.74-4.45-7.41-8.8-7.26-4.18.14-6.1 3.72-6.07 7.58a219.51 219.51 0 0 0 6 48.63l14.44-2.58-12.11-44c-2.27-8.26-15.61-10.39-14.87.31l3.35 49.05 14.87-.31a312.12 312.12 0 0 0 -18.4-55.31c-3.36-7.7-14-6-13.94 2.53a257.24 257.24 0 0 0 6.38 53.73l14.46-2.55-11.49-47.45c-2.06-8.54-15.27-10.2-14.87.32l1.76 45.92 14.87-.31q-6.12-23.58-14.31-46.53c-1.34-3.75-4.47-7.41-8.79-7.26-4.09.14-6.24 3.72-6.08 7.58l2 47.62 14.88-.31-12.28-48.1c-2.14-8.38-15.58-10.31-14.87.31l3.38 50.76 14.87-.32-16.31-51.15c-1.2-3.77-4.57-7.41-8.79-7.26-4 .14-6.31 3.72-6.08 7.58l3.22 53.54 14.88-.32a440.07 440.07 0 0 0 -14.17-52.14c-1.27-3.76-4.52-7.41-8.79-7.26-4.05.14-6.28 3.72-6.08 7.58l2.87 54.26 14.87-.32a329.36 329.36 0 0 1 -11.1-47c-.68-4.32-3.44-9-8.23-9.52s-7 3.45-7.05 7.6l-.07 50.8c0 4.22 3.94 9.14 8.23 9.52a633.09 633.09 0 0 0 67.47 2.45c11.09-.2 22.17-.63 33.23-1.38q8.31-.56 16.59-1.34c5-.48 9.78-.87 12.69-5.59 2.29-3.71 2.23-8.09 2.1-12.31-.18-5.56-.62-11.13-1.28-16.66a215.82 215.82 0 0 0 -6.06-31.37c-1.18-4.33-2.2-9-5.38-12.35-3.89-4.12-9.17-4-14.42-4.36-10.88-.7-21.78-1.32-32.68-1.29a208.26 208.26 0 0 0 -36.22 2.85c-12 2.16-24 5.71-36.23 5.36-10.72-.3-7.94 16.86 1.18 17.12z" fill="#97e1d3"/><path d="m308.15 421.34 9.66 6.46c2.12 1.42 4.89 1.53 6.43-.76 1.66-2.45.56-5.36-1-7.53a16.62 16.62 0 0 0 -15.24-6.76c-2.4.21-3.51 3-3.4 5a7.29 7.29 0 0 0 4.18 6 74.71 74.71 0 0 1 14.1 9 4.4 4.4 0 0 0 6.43-.76c1.66-2.46.56-5.37-1-7.54a28.45 28.45 0 0 1 -4.36-10.18l-9.64 1.7 3.29 12.07 9.65-1.69c-3.66-9.17-12.06-15.33-22.15-14.34l5.61 10.12c.64-.9.53-.45-.48-1 6.76 3.84 10.06-6 4.31-9.31-3.86-2.19-8.79-2.6-11.67 1.46s.4 10.63 5.61 10.12c3.39-.34 7.75 1.24 9.12 4.67 1 2.62 3.34 5.4 6.51 4.83s3.84-3.95 3.14-6.52l-3.3-12.08c-1.86-6.81-11.44-5.9-9.64 1.7a44.31 44.31 0 0 0 7.45 15.76l5.43-8.3a88.07 88.07 0 0 0 -16.59-10.41l.78 11a5.5 5.5 0 0 1 5.33 2.68l5.43-8.29-9.68-6.44c-6.5-4.35-9.78 5.66-4.31 9.31z" fill="#97e1d3"/><path d="m89.6 478.05q1.86-11.39 4-22.72 1-5.67 2.17-11.32c.6-3.07.81-7.25 2.29-9.93l-2.58 2.84 1-.65-3.78.68h.88l-3.83-1.58.69.41-3.06-3.5c.34-1 .22-1.61-.38-1.73l-.63 2.81c-.42 1.88-.85 3.75-1.29 5.63q-1.41 6.08-2.93 12.15-3 12.12-6.41 24.15l3.17-4.77-.7.29 5.73-.16-.66-.24 3.52 2.59-.54-.63 2.32 4.19v.45l-.69 4.08a18.63 18.63 0 0 0 3.62-2.58 14.57 14.57 0 0 0 2.8-5.82c1.16-4.08 2.08-8.24 3.1-12.35l6.92-27.78-10.77 3.89.84.49-3.06-3.5c-.25-2.94-.53-3.45-.83-1.51l-1.07 3.59-2.14 7.19-4.27 14.37c-2.67 9 11.85 17 15.08 6.2l6.68-22.46c1.91-6.44 1.93-14.49-4.76-18.34-4.61-2.66-9.37-1.74-10.77 3.89l-6.92 27.77-1.34 5.56c-.4 1.62-.58 4.72-1.58 6.05-.19.24-2.43 1.29-3 1.85a9.67 9.67 0 0 0 -3 5.36c-1.25 7 6.44 18.08 14.2 13.31 3.73-2.29 4.15-8.24 5.23-12.18q1.89-7 3.66-13.95t3.41-14c1-4.06 2.45-8.35 2.38-12.55-.11-7.08-6.34-16.84-14.57-13.06-3.91 1.8-4.75 6-5.58 9.75-1 4.38-1.77 8.8-2.61 13.2q-2.7 14.16-5 28.38a10.62 10.62 0 0 0 6.16 11.14 6.36 6.36 0 0 0 8.9-4.93z" fill="#e58983"/><path d="m73.81 491.33c2.3 2.88 6.37 4.9 10.09 3.94 7.48-1.92 5.67-11.81.7-15.5-1.26-.94.16.41-.45-.3-.26-.3-1.44-1.74-.38-.22l-1.93 11.36c-1.5.65 1.3-.49-.22 0 .88-.28.62.32-.42-.34 2.29 1.46 5 2.3 7.6.88a7.08 7.08 0 0 0 3.27-6.91c0-.19-.12-2.2-.14-1.29s.23-1.27.23-1.27c-.16.78-.07.09.11-.32a18.86 18.86 0 0 1 1.09-2.09l-14.58-6 .22 11.73c.08 4.34 3.85 9 8.23 9.52 4.64.55 7.12-3.47 7.05-7.6l-.2-11.67c-.13-7.33-10.08-13.49-14.59-6a21.29 21.29 0 0 0 -2.68 13.12l10.88-6c-4.64-3-9.46-3.66-14.56-1.42-4 1.73-4 8.33-1.94 11.36a30.7 30.7 0 0 0 7 7.51l.7-15.5 4.8 2.17c-2.52-3.16-7.83-4.46-10.79-1.2-3.19 3.5-1.64 8.86 1 12.12z" fill="#e58983"/><path d="m138.31 438.35 72.09.87 8.89.11h4c1.85 0 3.88 1.11 1.91-.9-2.63-2.67-.28.75.12 1.45q1.14 2 2.27 4.05c1.36 2.44 2.68 4.89 4 7.36 5.25 10 10.08 20.21 14.37 30.65l6.65-9.84q-63.86-2.82-127.71-1.1l10.1 11.59 12.38-48.08-15.18-4.06a153.09 153.09 0 0 1 -3.51 38.65l15.07 6.2a164.14 164.14 0 0 1 9.8-36.44l-14.48-8.13q-1.5 21-4.27 41.86c-.6 4.47 1.88 9.4 6.17 11.13a6.36 6.36 0 0 0 8.9-4.93 195.62 195.62 0 0 1 8.23-35.36l-14.58-6-1.1 36.66c-.24 8.11 14 14.35 15.18 4.05a236 236 0 0 1 8-39l-15.18-4.05.64 37.28a10.33 10.33 0 0 0 7.25 9.26c3.55.89 7.59-1.19 7.93-5.2l3-35.33-15.25-4.1 2.65 35.24c.74 9.77 14.94 13.71 15.28 1.92.32-11.07 1.24-22.09 2.62-33.08l-15.18-4.05c.39 12.84 1.07 25.57 4.19 38.09 2.14 8.55 15.15 10.2 14.88-.32a196.72 196.72 0 0 1 2-33.42l-15.18-4.05c1.58 13.14 3.27 26.42 8.25 38.78 1.58 3.91 5 8.09 9.76 7.24s5.44-5.88 4.7-9.79a205.73 205.73 0 0 1 -3.26-32.66l-15.28-1.9a242.08 242.08 0 0 0 8.86 36.28c1.25 3.76 4.54 7.41 8.79 7.26 3.92-.13 6.48-3.73 6.08-7.58l-3.7-35.37-14.87.32 12.21 35.91c1.35 4 5.15 8.07 9.76 7.25 4.8-.86 5.48-5.89 4.7-9.8l-7.26-36.6-14.47 2.55a223.49 223.49 0 0 0 15.41 35.21c2 3.6 6.65 6.54 10.66 4.39 4.24-2.28 3.6-7.76 1.93-11.37a113.08 113.08 0 0 1 -8.77-28.06l-13.94 2.54a159 159 0 0 1 13.71 29.42l13.53-4.76a144.41 144.41 0 0 1 -9.11-30.6l-14.46 2.55a217 217 0 0 0 18.45 36.94c2.18 3.47 6.49 6.62 10.66 4.38s3.5-7.7 1.93-11.36a215.16 215.16 0 0 1 -10.09-29.95l-13.53 4.76a206.11 206.11 0 0 0 24.78 37.19c6.42 7.71 16.38-.82 11.2-8.95a140.6 140.6 0 0 1 -15.67-33.5l-13.53 4.76q12.09 18.46 25.08 36.29c2.21 3 7 4.17 10 1.81 3.24-2.55 3-7.42 1.18-10.76-6-10.77-12.38-21.89-14.32-34.23l-13.93 2.53 24.1 40.55 12.6-7a115.18 115.18 0 0 1 -16.32-39.32l-13.53 4.76q10.3 19 19.78 38.49c1.8 3.68 6.77 6.47 10.66 4.38 4.19-2.25 3.68-7.79 1.94-11.36q-9.48-19.45-19.79-38.49c-4.67-8.63-15.6-5-13.53 4.76a129.75 129.75 0 0 0 18.19 43.78c2.24 3.43 6.45 6.63 10.66 4.38 4-2.13 4-7.94 1.94-11.36l-24.09-40.54c-1.75-2.94-5.15-5.73-8.83-5a6.82 6.82 0 0 0 -5.11 7.56c2.46 15.64 9.41 29.42 17 43.13l11.21-8.94q-11.55-15.9-22.31-32.36c-2.11-3.22-5.67-6.16-9.74-4.7-3.8 1.36-4.92 5.86-3.79 9.47a159.77 159.77 0 0 0 17.55 37.93l11.21-8.95a182.84 182.84 0 0 1 -22-33.25c-4.42-8.53-16.1-5-13.53 4.76a245.47 245.47 0 0 0 12 34.39l12.59-7a192.43 192.43 0 0 1 -16.62-32.52c-1.53-3.93-5-8.09-9.76-7.24s-5.44 5.88-4.7 9.79a164.32 164.32 0 0 0 11 35c3.76 8.7 16.84 4.85 13.53-4.77a183.67 183.67 0 0 0 -15.59-33.86c-1.74-2.94-5.15-5.73-8.83-5a6.8 6.8 0 0 0 -5.1 7.56 146.41 146.41 0 0 0 11.46 36.95l12.59-7a195.18 195.18 0 0 1 -13.54-30.76c-1.36-4-5.16-8.06-9.77-7.24-4.79.85-5.47 5.88-4.7 9.79l7.28 36.61 14.46-2.55-12.21-35.91c-1.28-3.76-4.52-7.41-8.79-7.27-3.92.14-6.49 3.73-6.08 7.58l3.7 35.37 14.87-.31a213.81 213.81 0 0 1 -8-31.81c-.72-4.31-3.41-9-8.23-9.52-4.62-.5-7.15 3.44-7 7.6a232.8 232.8 0 0 0 4.08 37.13l14.39-2.55c-4.44-11-6-22.59-7.43-34.32-.49-4.1-3-8.19-7.25-9.25a6.24 6.24 0 0 0 -7.93 5.2 223.09 223.09 0 0 0 -2.17 37.69l14.87-.31c-2.74-11-3-22.35-3.38-33.63-.23-7.87-13.85-14.56-15.18-4.05-1.56 12.4-2.46 24.85-2.82 37.35l15.29 1.92-2.69-35.19c-.3-4.09-3.18-8.23-7.25-9.26-3.54-.89-7.58 1.19-7.92 5.2l-3 35.33 15.17 4.06-.64-37.33c-.14-8.5-12.29-13.83-15.17-4.05a234.59 234.59 0 0 0 -8 39l15.18 4.05 1.1-36.65c.19-6.45-11.68-14.64-14.59-6a216.79 216.79 0 0 0 -9.41 39.23l15.07 6.2q2.79-20.87 4.28-41.87c.29-4.21-1.33-8.52-5.24-10.61-3.18-1.69-7.7-1.4-9.25 2.48a181.75 181.75 0 0 0 -11 40.31c-1.36 9 12.62 17.43 15.07 6.2a170.57 170.57 0 0 0 3.72-42.93c-.31-8.23-12.58-14.15-15.18-4.06l-12.35 48.09c-1.59 6.17 4.36 11.77 10.07 11.62q61.88-1.59 123.75 1.25a7 7 0 0 0 6.64-9.83c-5-12.21-10.5-24.22-16.68-35.9-2.79-5.28-5.41-11.26-9.17-15.92-4.16-5.16-9.27-5.32-15.41-5.39l-82-1c-10.72-.13-7.93 17 1.18 17.12z" fill="#e58983"/><path d="m247.51 485.23a25.13 25.13 0 0 0 4.29 5.94 9.75 9.75 0 0 0 4.52 2.84 6.09 6.09 0 0 0 4.75-.42c3.09-1.95 3.84-5.79 2.87-9.15l-.84-2.91a11.17 11.17 0 0 0 -4-5.71c-1.5-1.08-3.87-2-5.77-1.54a6.17 6.17 0 0 0 -4.41 3.49 9.43 9.43 0 0 0 -.28 6.31l.84 2.91 12.14-6.73a17.64 17.64 0 0 1 -1.76-2.1l1.38 2a18.09 18.09 0 0 1 -1.14-1.88 10.4 10.4 0 0 0 -4.93-4.54 6.76 6.76 0 0 0 -5.73.16c-3.94 2.48-3.92 7.61-1.93 11.36z" fill="#e58983"/><g fill="#142031"><path d="m135.45 133.44c-1.35-4.74-8.25-4.09-6.75 1.19l6.57 23.22c1.34 4.74 8.24 4.09 6.75-1.19z"/><path d="m183 124.68c-1.46-4.68-8.38-4.05-6.75 1.19q3.6 11.52 7.19 23c1.46 4.69 8.38 4.06 6.75-1.19q-3.62-11.48-7.19-23z"/><path d="m179.71 185c-4.58 4.73-12.1 6.26-18 2.89-4-2.34-6 3.6-2.58 5.59 8.29 4.79 18.45 3.85 25.23-3.15 2.64-2.64-1.85-8.24-4.65-5.33z"/><path d="m471.85 379.1c-1.31-9-2.67-18-4.63-26.93-1-4.35-1.65-7.6-6.38-8.07-12.11-1.19-24.5-1-36.65-1.31q-28.59-.71-57.18-.87c-16.58-.08-33.39-.48-49.93 1-1.39.12-2.16 1.79-2 3 1.54 16 3.49 31.89 5.4 47.81a2.32 2.32 0 0 0 -.53 0q-5.82.19-11.65.34a399 399 0 0 1 -3.3-43.82c-.66-21.53-.61-43.42 2.11-64.81 3.34-26.23 13.77-50.9 14.33-77.55.86-41-13.05-81-30.71-117.47-8.91-18.4-17.82-37.74-30.51-53.91-11.08-14.07-26.71-29.37-45.22-32.09-8.66-1.27-20 .7-24.89 8.75s-2.31 18.22 1.22 26.19c5.92 13.37 15.28 25.09 25 36.27a104.67 104.67 0 0 0 -16.91-5.63c-33.26-8-70.47.68-95.75 24q-3.47 3.19-6.6 6.73a105.81 105.81 0 0 0 3.44-23.15c.33-11-1.53-24.28-12.41-29.84-12.57-6.41-24.47 2.82-32.7 11.9-10.21 11.3-16.35 24.26-20.73 38.7-20.3 66.86-2 141.49 38 197.41 12.56 17.59 28.2 32 42.65 47.9 13.22 14.56 22.87 30.61 27.29 49.56-18.4-.29-36.8-.5-55.2-.5-21.31 0-42.62.27-63.91 1-3.92.13-1.62 6.94 2 6.81 39.9-1.38 79.81-1.07 119.72-.45a2.93 2.93 0 0 0 2.67 0c36.72.59 73.44 1.41 110.16 1.42 21.08 0 42.16-.27 63.23-1q.53 4.45 1 8.91l-32.75 1.2c-3.61.13-1.75 5.77.46 6.62a101.26 101.26 0 0 1 35.35 22.87 3.81 3.81 0 0 0 1.56 1 2.88 2.88 0 0 0 2.23 1.1c15.42 0 30.85.76 46.26 1.06q50.18 1 100.36.72a2.68 2.68 0 0 0 2.82-3c-1.05-20.69-3.75-41.38-6.72-61.87zm-323.24 14.2a107.28 107.28 0 0 0 -17.8-39.7c-10.5-14.87-24.28-26.87-36.5-40.25a239.23 239.23 0 0 1 -49.54-84.22c-10.37-30.56-14.77-63.44-10.92-95.57 3.26-27.38 11.6-61.64 36.54-77.64 5.56-3.57 12.33-5.23 18-.77 4.92 3.85 5.8 10.85 6.01 16.65.6 16.55-4.35 32.12-10.4 47.34a3 3 0 0 0 -.18.78c-10.17 19.18-14.17 41.68-10.16 63.08 6.6 35.17 34.87 64.73 69.89 72.32 4.12.89 3-6.09-.47-6.85-28.64-6.2-52.49-28.81-61.21-56.67-9-28.9-.64-61.48 18.72-84.28 20.4-24 52.66-35.72 83.79-33.1 15.23 1.28 30.46 5.92 43.33 14.29a3.49 3.49 0 0 0 1.56 1l.27.18c14.69 10.15 23.75 25.32 29.83 41.83 6.76 18.35 9.75 38.61 4.77 57.79-4.38 16.84-15 32-30.38 40.39-3.34 1.83.14 8.13 3.49 6.3 32.33-17.67 40.34-57.37 32.36-90.82-4.31-18.1-12.33-37.14-25.33-50.73a79.42 79.42 0 0 0 -13.28-11.11c-10.86-12.54-22.33-25-30.68-39.41-4.17-7.13-9.52-17.47-5.32-25.65 4.46-8.79 18-8.54 26-5.93 17.37 5.72 31.6 21.71 41.31 36.64 10.65 16.36 19.21 34.63 27.39 52.33 15.74 34.06 27.79 72.26 25.51 110.24-1.44 24.08-10.86 46.7-14 70.54-2.79 21.3-2.91 43.14-2.35 64.59.41 15.76 1.2 31.68 3.5 47.32-51.29 1.17-102.52-.09-153.75-.91zm314.16-42.22c.07 0 .32.1.38.06a.69.69 0 0 1 -.93-.06 1.26 1.26 0 0 0 .55 0zm-138.07 80.36a110.3 110.3 0 0 0 -20.36-14.44l18.75-.69q.84 7.57 1.61 15.13zm50.24 5c-14.6-.29-29.21-.95-43.81-1.05-2.77-28.66-6.84-57.18-9.69-85.84 12.78-1 25.7-.82 38.5-.81 18.47 0 36.94.27 55.41.67 13.8.3 27.61.6 41.4 1.27 1.35.06 2.69.16 4 .23.37 2.89 1.42 5.9 1.94 8.74.88 4.78 1.64 9.58 2.37 14.39 3.16 20.88 5.95 42 7.19 63.12q-48.64.24-97.31-.71z"/><path d="m252.64 439.92c-2.84-6.19-5.68-12.39-8.73-18.48-1.24-2.46-2.64-6.43-5.4-7.59-2.4-1-5.79-.57-8.3-.59-5.51 0-11 .05-16.55.14-14.39.22-28.78.58-43.17.79-11.62.18-23.83 1.17-35.39-.38a2.23 2.23 0 0 0 -2.21.75 2.36 2.36 0 0 0 -1.12 1.95c-2.89 23.12-8.86 45.72-11.75 68.84-.23 1.84 1.07 4.63 3.25 4.67 44.14.76 88.35 2 132.49 1.28 4.95-.08 11.07.63 15.89-.81 2.27-.68 2.33-2.93 1.5-4.81-6.76-15.28-13.54-30.56-20.51-45.76zm-16.25-20.45c-.28-.27-.18-.29 0 0zm20.43 65c-9.06.17-18.13.15-27.2.12-23.87-.09-47.73-.42-71.59-.79l-31.36-.53c3-20.89 8.11-41.43 10.88-62.36 8.64.92 17.61.36 26.23.27 14.18-.16 28.35-.5 42.52-.76 9.84-.18 19.9-.84 29.74-.14a7.38 7.38 0 0 1 .74.1c.36.81.94 1.63 1.32 2.38 2.85 5.5 5.42 11.15 8 16.77 6.86 14.87 13.51 29.84 20.14 44.81-3.11.27-6.5.03-9.42.09z"/><path d="m104.27 411.64.78-2a4.15 4.15 0 0 0 -1.48-4.81c-1.3-.86-3.39-1-4.08.78-.35.9-.71 1.8-1.06 2.71a25 25 0 0 0 -3.61 3.45c-1.87 1.85-4.24 3.7-5.72 5.88a2.84 2.84 0 0 0 -.36.77 4.31 4.31 0 0 0 -.24.61q-7 24.62-14.06 49.23l-3.24 11.39c-.77 2.72-2.55 6.18-1.5 9.07a6 6 0 0 0 3.61 3.42c3.86 1.74 8.74 2.44 12.82 3.57a2.57 2.57 0 0 0 3.56-2c3.07-12.49 6.22-25 9.36-37.44q2.39-9.44 4.75-18.88c1.15-4.57 2.92-9.2 2.51-14-.17-2.03-.5-7.81-2.04-11.75zm-5.9 1.41c-.54-.55-.28-.6 0 0zm-.57 5.8 1.57-1.55a44.75 44.75 0 0 1 .88 5 7 7 0 0 1 -4.33-1.67c.64-.63 1.29-1.19 1.88-1.78zm-21.68 67.34c.43-1.52 1-3.6 1.09-4l.36.11a32.68 32.68 0 0 1 7.65 2.7l-.87 3.49-7.2-2zm19.31-41.9q-4.35 17.26-8.68 34.55a42.26 42.26 0 0 0 -7.75-2.91q1.95-6.84 3.91-13.68 5.16-18.08 10.33-36.16a13.89 13.89 0 0 0 6.42 2.91c-1.03 5.15-3.03 10.5-4.23 15.29z"/></g></svg>