<svg xmlns="http://www.w3.org/2000/svg" xml:space="preserve" style="fill-rule:evenodd;clip-rule:evenodd;stroke-linecap:round;stroke-linejoin:round;stroke-miterlimit:1.5" viewBox="0 0 100 120"><g transform="translate(-2691.14 -2295.53)"><g id="glyph-S" transform="matrix(.05 0 0 .07 2505.44 2257.67)"><rect width="1874" height="1629" x="3480" y="514" style="fill:none"/><path id="Stroke-01" d="M2751.58,2342.449C2754.672,2341.361 2759.081,2339.675 2758.945,2336.4C2758.816,2333.303 2754.226,2332.319 2751.145,2331.989C2747.445,2331.592 2743.505,2332.574 2740.235,2334.35C2736.972,2336.122 2733.576,2338.704 2732.334,2342.203C2730.961,2346.072 2731.961,2350.547 2733.084,2354.495C2734.542,2359.619 2738.292,2363.867 2739.936,2368.934C2740.362,2370.246 2743.93,2385.76 2734.567,2384.807C2727.32,2384.069 2725.45,2381.018 2722.816,2373.512" style="fill:none;stroke:#ff9f95;stroke-width:4.17px" transform="matrix(18.74 0 0 13.57 -46969.15 -30643.77)"/></g></g></svg>