<svg height="512" viewBox="0 0 512 512" width="512" xmlns="http://www.w3.org/2000/svg"><g id="_x31_7_I_love_you_so_much"><g><path d="m498.374 268.587c-8.237-4.181-17.92-3.922-25.899.691-4.032 2.331-7.304 5.605-9.597 9.464-2.448-4.669-3.315-4.803-8.108-7.431 2.772 1.52 8.143-3.419 10.942-4.298 28.494-8.95 34.616-42.629 32.491-68.92-1.31-16.215-7.605-37.441-28.367-35.843-7.047.543-13.471 3.609-17.982 8.515-1.779-2.04-4.072-3.91-7.021-5.455-7.587-3.973-16.07-4.044-23.885-.193-3.803 1.873-6.616 4.299-8.695 6.975-1.295-.859-2.636-1.666-4.025-2.419-9.603-5.214-17.445-8.795-29.059-8.408-9.122.304-17.825 2.616-25.505 6.545-1.813-4.738-5.114-8.74-9.657-11.486-6.413-3.877-14.269-4.764-21.554-2.438-7.479 2.389-13.529 7.826-16.601 14.919-.083.191-.166.381-.25.569-4.024-4.686-11.553-11.545-22.589-10.541-2.13-15.725-9.223-29.758-20.819-40.46-11.256-10.387-26.292-15.032-42.339-13.08-14.034 1.707-27.706 8.519-37.513 18.69-2.03 2.106-3.903 4.311-5.648 6.578-11.475-12.865-27.612-21.556-45.114-23.113-21.3-1.894-39.736 5.929-51.925 22.028-5.109 6.748-8.878 19.454-11.238 28.106-5.276-2.594-11.442-3.367-17.609-2.107-11.435 2.353-19.665 8.035-19.567 19.982.167 20.239.595 40.68 1.268 60.758.397 11.78 8.603 21.629 19.955 23.952 1.871.383 3.747.571 5.601.571 6.055 0 11.875-2.01 16.529-5.808 5.76-4.701 9.064-11.735 9.064-19.298 0-.194-.003-.387-.01-.581-.056-1.662-.11-3.328-.163-4.995 10.315 16.087 23.809 30.816 37.772 43.928-.221.038-.442.078-.662.122-1.113-.047-2.224-.025-3.323.065-10.309.804-19.844 4.389-28.347 10.659-.747-1.422-1.622-2.78-2.623-4.057-4.707-6.003-11.86-9.595-19.624-9.857-11.759-.398-22.408 2.334-31.722 8.113-10.554 6.55-17.327 16.698-19.596 29.398-1.883 10.72.153 21.861 6.049 33.112 2.09 3.989 4.468 7.593 6.567 10.772.234.355 2.54 4.26 2.722 4.208-6.417 3.282-11.276 9.008-13.488 15.983-2.446 7.712-1.409 16.045 2.841 22.89 6.657 10.72 19.087 14.479 30.673 9.742.043-.017.084-.034.127-.052 11.956-5 19.995-11.25 25.341-17.773.027.027.054.055.08.082 7.516 7.588 17.079 12.406 28.427 14.322 0 0 .078.013.078.013 23.842 3.913 47.343-8.181 58.674-29.403 6.569-12.302 9.531-27.112 8.341-41.701-.524-6.426-1.82-12.598-3.792-18.37 2.131.887 4.395 1.328 6.656 1.328 3.95 0 7.889-1.346 11.08-4.001-2.386 21.057-3.208 41.988-2.441 62.425.29 7.73 3.906 14.856 9.922 19.551 4.845 3.782 10.835 5.776 17.04 5.776 14.621 0 26.468-11.87 25.833-26.643-.192-4.999-.286-9.981-.282-14.937 2.388.388 4.831.442 7.248.169.378 4.702.667 9.357.868 13.952.337 7.73 3.986 14.844 10.011 19.518 6.376 4.946 14.723 6.794 22.876 5.072 4.783-1.004 8.945-3.245 12.21-6.363 8.26 7.67 19.025 12.054 31.123 12.315 14.948.322 29.479-6.993 37.571-19.944 6.184 6.766 13.844 12.036 22.781 15.669 9.402 3.824 19.619 5.161 29.694 4.041 5.04-.532 9.601-2.314 13.391-5.139 4.332 2.839 9.555 4.469 15.175 4.469 8.89 0 17.464-4.326 22.118-12.041 1.549 1.847 3.379 3.488 5.461 4.867 7.852 5.196 18.124 5.808 26.791 1.603 8.801-4.262 14.138-12.481 14.643-22.503.46-8.676 1.151-21.635 2.071-38.871l2.123-39.828c.524-10.534-4.551-19.557-13.589-24.15z" fill="#eae8e4"/><path d="m483.694 268.587c-8.237-4.181-17.92-3.922-25.899.691-4.032 2.331-7.304 5.605-9.597 9.464-2.448-4.669-6.261-8.602-11.054-11.23 2.772 1.52 10.303-.977 13.102-1.856 28.494-8.95 35.402-41.273 33.277-67.564-1.31-16.215-7.606-37.441-28.367-35.843-7.047.543-13.471 3.609-17.982 8.515-1.779-2.04-4.072-3.91-7.021-5.455-7.587-3.973-16.07-4.044-23.885-.193-3.803 1.873-6.616 4.299-8.695 6.975-1.295-.859-2.636-1.666-4.025-2.419-9.603-5.214-17.445-8.795-29.059-8.408-9.122.304-17.825 2.616-25.505 6.545-1.813-4.738-5.114-8.74-9.657-11.486-6.413-3.877-14.269-4.764-21.554-2.438-7.479 2.389-13.529 7.826-16.601 14.919-.083.191-.166.381-.25.569-4.024-4.686-11.553-11.545-22.589-10.541-2.13-15.725-9.223-29.758-20.819-40.46-11.256-10.387-26.292-15.032-42.339-13.08-14.034 1.707-27.706 8.519-37.513 18.69-2.03 2.106-3.903 4.311-5.648 6.578-11.475-12.865-27.612-21.556-45.114-23.113-21.3-1.894-39.736 5.929-51.925 22.028-5.109 6.748-8.878 14.76-11.238 23.413-5.276-2.594-11.442-3.367-17.609-2.107-11.435 2.353-19.665 12.729-19.567 24.675.167 20.239.595 40.68 1.268 60.758.397 11.78 8.603 21.629 19.955 23.952 1.871.383 3.747.571 5.601.571 6.055 0 11.875-2.01 16.529-5.808 5.76-4.701 9.064-11.735 9.064-19.298 0-.194-.003-.387-.01-.581-.056-1.662-.11-3.328-.163-4.995 10.315 16.087 23.809 30.816 37.772 43.928-.221.038-.442.078-.662.122-1.113-.047-2.224-.025-3.323.065-10.309.804-19.844 4.389-28.347 10.659-.747-1.422-1.622-2.78-2.623-4.057-4.707-6.003-11.86-9.595-19.624-9.857-11.759-.398-22.408 2.334-31.722 8.113-10.554 6.55-17.327 16.698-19.596 29.398-1.883 10.72.153 21.861 6.049 33.112 2.09 3.989 4.468 7.593 6.567 10.772.234.355 2.54 4.26 2.722 4.208-6.417 3.282-11.276 9.008-13.488 15.983-2.446 7.712-1.409 16.045 2.841 22.89 6.657 10.72 19.087 14.479 30.673 9.742.043-.017.084-.034.127-.052 11.956-5 19.995-11.25 25.341-17.773.027.027.054.055.08.082 7.516 7.588 17.079 12.406 28.427 14.322 0 0 .078.013.078.013 23.842 3.913 47.343-8.181 58.674-29.403 6.569-12.302 9.531-27.112 8.341-41.701-.524-6.426-1.82-12.598-3.792-18.37 2.131.887 4.395 1.328 6.656 1.328 3.95 0 7.889-1.346 11.08-4.001-2.386 21.057-3.208 41.988-2.441 62.425.29 7.73 3.906 14.856 9.922 19.551 4.845 3.782 10.835 5.776 17.04 5.776 14.621 0 26.468-11.87 25.833-26.643-.192-4.999-.286-9.981-.282-14.937 2.388.388 4.831.442 7.248.169.378 4.702.667 9.357.868 13.952.337 7.73 3.986 14.844 10.011 19.518 6.376 4.946 14.723 6.794 22.875 5.072 4.783-1.004 8.945-3.245 12.21-6.363 8.26 7.67 19.025 12.054 31.123 12.315 14.948.322 29.479-6.993 37.571-19.944 6.184 6.766 13.844 12.036 22.781 15.669 9.402 3.824 19.619 5.161 29.694 4.041 5.04-.532 9.601-2.314 13.391-5.139 4.332 2.839 9.555 4.469 15.175 4.469 8.89 0 17.464-4.326 22.118-12.041 1.549 1.847 3.379 3.488 5.461 4.867 7.852 5.196 18.124 5.808 26.791 1.603 8.801-4.262 14.138-12.481 14.643-22.503.46-8.676 1.151-21.635 2.071-38.871l2.123-39.828c.525-10.533-4.551-19.556-13.588-24.149z" fill="#fff"/><g><g fill="#3b293a"><path d="m24.594 371.627c4.446-1.856 9.886-5.846 10.268-11.175.338-4.744-2.066-9.853-4.541-13.76-2.781-4.389-5.829-8.6-8.241-13.201-4.099-7.822-5.541-15.177-4.33-22.07 1.398-7.823 5.284-13.711 11.665-17.671 6.377-3.957 13.71-5.797 21.999-5.518 6.411.216 9.602 6.205 8.382 12.013-1.784 8.494-11.948 5.178-17.741 7.264-9.62 3.465-2.648 17.112.42 22.908 2.1 3.968 4.711 7.643 6.846 11.595 3.723 6.893 5.308 13.458 4.749 19.696-1.025 11.828-9.219 20.953-24.584 27.379-4.1 1.677-7.219.744-9.359-2.794-3.256-5.174-1.251-12.28 4.467-14.666z"/><path d="m92.903 384.618c-7.731-1.305-14.063-4.446-18.998-9.429-9.988-10.077-12.348-25.234-10.406-38.903 2.105-14.814 8.684-28.249 20.744-37.297 5.958-4.47 12.523-6.984 19.696-7.543 1.117-.091 2.235 0 3.352.28 2.606-1.118 5.215-1.07 7.823.14 15.399 7.14 23.402 23.941 24.725 40.16.897 10.993-1.154 22.386-6.356 32.129-8.119 15.202-23.512 23.264-40.58 20.463zm11.035-75.013c-7.822.559-13.969 5.217-18.439 13.969-4.099 8.195-5.448 16.716-4.05 25.563 1.488 8.848 5.448 14.388 11.873 16.623 2.141.838 4.562 1.165 7.263.978 4.376-.371 8.194-1.792 11.455-4.261 3.259-2.466 5.634-5.494 7.124-9.079 1.489-3.584 2.397-7.589 2.724-12.013.325-4.422-.024-8.707-1.047-12.852-1.026-4.142-2.678-8.032-4.959-11.664-2.282-3.632-5.007-6.378-8.171-8.242-1.119.56-2.377.887-3.773.978z"/><path d="m264.717 369.113c.176 4.011-2.043 7.52-6.147 8.381-5.773 1.218-11.737-2.051-12.013-8.382-.653-14.992-2.19-30.358-4.609-46.096-3.353 5.681-6.66 10.058-9.918 13.131-2.842 2.662-7.626 3.604-11.037 1.397-4.749-3.074-9.965-8.382-15.645-15.924-1.49 16.204-1.909 32.781-1.257 49.729.164 3.827-2.091 7.556-6.007 8.381-5.815 1.225-11.912-1.993-12.152-8.382-.932-24.864.559-50.147 4.47-75.85.99-6.499 11.01-8.674 15.086-3.912 1.117 1.305 3.887 5.147 8.311 11.524 4.422 6.38 7.984 10.965 10.686 13.759 1.582-2.235 3.213-4.911 4.889-8.032 3.065-5.707 5.753-11.803 9.22-17.252 3.983-6.26 15.136-5.77 16.623 2.235 5.215 24.773 8.382 49.869 9.5 75.293z"/><path d="m305.924 383.081c-13.303-.253-23.351-8.016-28.078-20.255-3.301-8.547-4.375-17.09-4.958-26.122-.572-8.858-.469-17.673-.559-26.54-.047-4.561-.163-8.192-.349-10.894-.495-7.207 7.06-10.546 13.061-7.684 3.119 1.491 4.819 4.05 5.099 7.683.843 10.948-.481 21.845-.769 32.827-.252 9.599 1.302 22.612 9.568 28.914 3.582 2.731 8.138 3.273 11.746.305 3.764-3.097 4.758-8.275 5.926-12.736 1.432-5.475 2.026-11.399 2.026-17.042.464-10.337-.792-21.184-3.772-32.547-.985-3.771.381-8.067 3.981-9.918 5.357-2.756 11.982-1.244 13.62 5.029.929 3.54 1.768 7.637 2.515 12.292 1.743 10.865 2.197 21.814 1.746 32.827-.432 10.512-2.521 21.392-7.613 30.731-4.7 8.613-13.443 13.471-23.19 13.13z"/><path d="m393.646 382.942c-7.452.838-14.551-.118-21.302-2.864-6.753-2.746-12.387-6.657-16.902-11.734-4.518-5.075-7.893-11.105-10.128-18.09s-2.887-14.061-1.956-21.233c.93-7.076 3.189-13.525 6.775-19.346 3.584-5.819 8.032-10.453 13.341-13.899 5.309-3.444 11.29-5.749 17.95-6.914 6.657-1.163 13.431-.535 20.324 1.886 6.065 2.13 7.713 8.411 4.89 13.899-1.877 3.649-6.04 4.865-9.779 3.562-11.269-3.632-20.303-1.677-27.099 5.867-5.402 6.055-7.962 13.69-7.683 22.909.279 9.687 3.583 17.136 9.918 22.35 5.679 4.658 12.896 6.473 21.65 5.448 7.337-.859 10.7 6.621 7.753 12.781-1.535 3.212-4.12 5.007-7.752 5.378z"/><path d="m414.319 373.582c-.653-8.752-.349-22.396.908-40.928 1.257-18.53 1.419-32.687.488-42.465-.373-3.632.884-6.192 3.772-7.683 6.001-3.098 13.688.872 14.388 7.683.929 9.407.884 22.025-.139 37.855 8.567.188 17.227.932 25.982 2.235-.074-.011 1.37-24.205 1.466-26.122.231-4.655.441-8.751.629-12.291.369-6.963 7.886-10.945 14.039-7.823 2.933 1.491 4.307 4.099 4.121 7.823-.467 8.754-1.165 21.861-2.096 39.322s-1.631 30.57-2.095 39.322c-.188 3.726-1.816 6.334-4.89 7.823-6.152 2.985-13.632-.634-13.27-7.823.252-5.012.498-9.94.768-14.946.14-2.606.302-4.981.489-7.124-8.289-1.397-17.042-2.141-26.261-2.235-.559 10.896-.606 20.023-.139 27.379.588 11.851-17.336 11.035-18.16-.002z"/></g><g><g><path d="m33.892 175.31c-.029-3.562 2.169-6.823 5.729-7.556 5.282-1.079 10.641 1.647 10.641 7.556.251 20.148.712 40.255 1.385 60.319 0 5.637-5.212 8.614-10.39 7.555-3.775-.772-5.984-3.909-6.106-7.556-.673-20.062-1.092-40.169-1.259-60.318z" fill="#3b293a"/></g><g fill="#3b293a"><path d="m307.077 175.688c2.135-4.931 8.541-7.401 13.285-4.533 2.223 1.344 3.167 3.569 2.834 6.674-3.107 32.07-9.866 57.255-20.275 75.556-2.667 5.085-8.963 4.756-12.909 1.321-2.761-2.404-2.856-6.549-1.195-9.506 4.953-8.815 9.067-20.022 12.34-33.622-1.259.756-2.393 1.303-3.399 1.637-8.2 2.726-15.455-2.332-20.841-8.123-4.462-4.797-7.963-10.154-12.404-14.922-4.128-4.433-2.077-12.191 3.839-13.79 5.814-1.571 9.085 3.885 12.153 7.745 2.602 3.274 5.078 6.277 7.43 9.003 2.349 2.729 3.693 4.093 4.029 4.093 1.342.085 3.127-1.364 5.352-4.344 3.916-5.243 7.164-11.19 9.761-17.189z"/><path d="m384.522 184.503c6.379 3.274 11.312 8.144 14.796 14.608 3.483 6.466 5.12 13.37 4.912 20.715-.391 13.795-7.252 27.125-20.022 33.119-16.341 7.67-37.673 3.822-49.049-10.641-9.166-11.653-11.42-27.636-5.541-41.178 6.039-13.909 20.676-22.049 35.448-22.541 5.078-.167 9.927.714 14.545 2.644 1.594.589 2.853 1.555 3.778 2.897.587.168.964.294 1.133.377zm-.504 47.222c4.526-6.961 5.145-15.796 1.621-23.277-1.979-4.2-5.254-7.762-9.429-9.842-1.176-.586-2.098-1.3-2.77-2.141-3.695-1.007-7.304-1.405-10.83-1.196-7.348.435-14.11 4.947-17.504 11.396-7.481 14.214 2.391 31.634 17.882 33.686 7.816 1.036 16.624-1.849 21.03-8.626z"/><path d="m463.983 185.384c1.09 4.199 1.845 8.899 2.266 14.104.899 11.115-.061 21.944-3.841 32.552-3.525 9.894-11.625 17.185-22.227 18.071-7.189.6-14.493-2.14-19.015-7.933-4.772-6.115-7.898-13.451-9.318-21.03-1.447-7.718-2.828-15.857-2.644-23.737.132-5.682-1.468-13.699 4.722-16.748 2.812-1.385 5.54-1.385 8.185 0 5.146 2.695 3.49 8.948 3.4 13.663-.176 9.222.507 18.606 2.897 27.516 1.175 4.395 4.113 9.827 8.878 11.018 3.022.673 5.518-.104 7.492-2.329 4.784-5.392 4.969-14.272 5.1-21.093.131-6.816-.374-13.008-1.762-19.644-1.193-5.7 2.79-9.834 8.371-10.264 3.526-.272 6.653 2.625 7.496 5.854z"/></g><g><path d="m159.979 296.243c-30.829-24.31-72.662-57.858-87.426-96.674-12.343-32.451.97-78.582 42.813-74.86 21.872 1.945 41.427 19.506 45.704 41.044 5.583-10.265 10.96-21.331 19.07-29.743 14.198-14.725 39.606-19.681 55.622-4.901 14.898 13.749 18.5 33.525 14.253 52.755-10.549 47.751-56.465 80.307-90.036 112.379z" fill="#f34949"/></g></g><path d="m202.821 166.315c6.058 7.616 9.388 17.314 10.668 26.906.842 6.305 2.726 17.755 7.621 6.917 2.695-5.967 3.657-12.835 3.973-19.318.589-12.086-.892-28.423-10.405-37.183-7.693-7.083-20.181 2.497-18.285 11.937.769 3.829 3.689 7.298 6.428 10.741z" fill="#fefaec"/></g></g></g></svg>