<svg xmlns="http://www.w3.org/2000/svg" xml:space="preserve" style="fill-rule:evenodd;clip-rule:evenodd;stroke-linecap:round;stroke-linejoin:round;stroke-miterlimit:1.5" viewBox="0 0 100 120"><g transform="matrix(1,0,0,1,-1444.482518,-3045.36522)"><g id="glyph--" transform="matrix(0.053362,0,0,0.073665,1258.783478,3007.5015)"><rect width="1874" height="1629" x="3480" y="514" style="fill:none"/><path id="Stroke-01" d="M1504.006,3076.049C1501.765,3080.788 1499.494,3085.591 1496.362,3089.795C1492.832,3094.532 1489.602,3096.937 1485.297,3100.981" style="fill:none;stroke:#ff9f95;stroke-width:4.17px" transform="matrix(18.74,0,0,13.575,-23589.602383,-40826.83286)"/><path id="Stroke-02" d="M1491.502,3082.205C1492.617,3084.994 1493.866,3088.123 1496.362,3089.795C1497.976,3090.877 1500.317,3089.953 1502.166,3089.355C1505.088,3088.41 1507.783,3086.815 1510.424,3085.246" style="fill:none;stroke:#ff9f95;stroke-width:4.17px" transform="matrix(18.74,0,0,13.575,-23589.602383,-40826.83286)"/><path id="Stroke-03" d="M1497.777,3089.355C1499.712,3098.112 1501.683,3105.542 1504.006,3099.928" style="fill:none;stroke:#ff9f95;stroke-width:4.17px" transform="matrix(18.74,0,0,13.575,-23589.602383,-40826.83286)"/></g></g></svg>